<svg width="15" height="14" viewBox="0 0 15 14" fill="none" xmlns="http://www.w3.org/2000/svg">
<path d="M14.8411 5.06L10.5553 0.81245C10.4493 0.70735 10.3237 0.654785 10.1786 0.654785C10.0335 0.654785 9.90795 0.70735 9.80199 0.81245C9.69595 0.917609 9.64285 1.04206 9.64285 1.18584V3.30961H7.76787C3.78891 3.30961 1.34764 4.42408 0.443497 6.65295C0.147823 7.39398 0 8.31495 0 9.41556C0 10.3336 0.354369 11.5807 1.06305 13.157C1.07976 13.1958 1.10896 13.2621 1.15089 13.3561C1.19278 13.45 1.2304 13.533 1.26388 13.6049C1.29748 13.6767 1.33377 13.7376 1.3728 13.7873C1.4397 13.8814 1.51786 13.9285 1.60717 13.9285C1.69087 13.9285 1.75646 13.9009 1.80392 13.8456C1.85127 13.7903 1.87499 13.7211 1.87499 13.6383C1.87499 13.5884 1.86801 13.5152 1.85403 13.4184C1.84007 13.3215 1.83306 13.2567 1.83306 13.2235C1.80512 12.8475 1.79117 12.5071 1.79117 12.2031C1.79117 11.6446 1.84007 11.144 1.93764 10.7016C2.03536 10.2591 2.17066 9.87617 2.3437 9.55259C2.51671 9.22889 2.73985 8.94979 3.01336 8.71472C3.28675 8.47965 3.58108 8.28752 3.89636 8.13816C4.21171 7.98878 4.58279 7.87124 5.00969 7.78555C5.43657 7.69983 5.86623 7.64035 6.29876 7.60714C6.73129 7.57393 7.22096 7.55742 7.76787 7.55742H9.64285V9.68126C9.64285 9.82503 9.69583 9.94951 9.80179 10.0546C9.90792 10.1595 10.0334 10.2122 10.1784 10.2122C10.3235 10.2122 10.4491 10.1595 10.5553 10.0546L14.841 5.80686C14.947 5.70176 15 5.57737 15 5.43356C15 5.28979 14.947 5.1653 14.8411 5.06Z" fill="black" fill-opacity="0.3"/>
</svg>
