<svg width="21" height="14" viewBox="0 0 21 14" fill="none" xmlns="http://www.w3.org/2000/svg">
<path d="M10.5 13.4985C6.48773 13.4985 2.84919 11.3034 0.164314 7.73787C-0.0547714 7.44576 -0.0547714 7.03766 0.164314 6.74554C2.84919 3.17574 6.48773 0.980584 10.5 0.980584C14.5123 0.980584 18.1508 3.17574 20.8357 6.74125C21.0548 7.03336 21.0548 7.44146 20.8357 7.73358C18.1508 11.3034 14.5123 13.4985 10.5 13.4985ZM10.7878 2.83207C8.12442 2.66454 5.92498 4.85969 6.09251 7.52738C6.22998 9.72683 8.01273 11.5096 10.2122 11.647C12.8756 11.8146 15.075 9.61943 14.9075 6.95174C14.7657 4.75659 12.983 2.97383 10.7878 2.83207ZM10.6546 4.86828C9.21985 4.77807 8.03421 5.95941 8.12872 7.39421C8.20175 8.57985 9.16401 9.53781 10.3496 9.61513C11.7844 9.70535 12.9701 8.524 12.8756 7.08921C12.7983 5.89927 11.836 4.94131 10.6546 4.86828Z" fill="black" fill-opacity="0.3"/>
</svg>
