<svg width="134" height="25" viewBox="0 0 134 25" fill="none" xmlns="http://www.w3.org/2000/svg">
<path fill-rule="evenodd" clip-rule="evenodd" d="M7.61362 6.74411H9.73698L9.73652 14.3828V18.2102H7.61362V6.74411Z" fill="black"/>
<path d="M8.95139 12.4772V14.5247H12.011C14.1357 14.5247 15.8233 12.766 15.8233 10.6344C15.8233 8.50284 14.1357 6.74411 12.011 6.74411L8.95139 6.74411L8.95139 8.79163H12.011C12.9246 8.79163 13.7 9.59969 13.7 10.6344C13.7 11.6691 12.9246 12.4772 12.011 12.4772H8.95139Z" fill="black"/>
<path d="M36.3932 6.74411H38.525V14.4199C38.525 16.561 36.595 18.2559 34.2614 18.2559C31.9277 18.2559 29.9977 16.561 29.9977 14.4199L29.9977 6.74411L32.1296 6.74411V14.4199C32.1296 15.3806 33.0629 16.2002 34.2614 16.2002C35.4598 16.2002 36.3932 15.3806 36.3932 14.4199V6.74411Z" fill="black"/>
<path fill-rule="evenodd" clip-rule="evenodd" d="M73.8523 16.2496L79.4462 8.75046H73.8523V6.74411H82.2772V8.75046L76.6833 16.2496H80.2736V15.2466H82.2772V16.6297V18.2559H73.8523V16.2496Z" fill="black"/>
<path fill-rule="evenodd" clip-rule="evenodd" d="M60.1977 8.75048L54.6038 16.2496H59.9248V18.256H51.858V16.2496L57.3666 8.75048H53.7763V9.75346H51.7727V8.37035V6.74413H60.1977V8.75048Z" fill="black"/>
<path fill-rule="evenodd" clip-rule="evenodd" d="M101.662 15.2135H103.777V18.2559H95.9318V6.74411H98.2683V16.2496H101.662V15.2135Z" fill="black"/>
<path fill-rule="evenodd" clip-rule="evenodd" d="M118.011 6.74411H125.711V8.75046H120.135V11.4311H125.711V13.4374H120.135V16.2496H125.711V18.2559H118.011V6.74411Z" fill="black"/>
<rect x="1" y="1.69888" width="21.6023" height="21.6023" stroke="black" stroke-width="2"/>
<rect x="23.0796" y="1.69888" width="21.6023" height="21.6023" stroke="black" stroke-width="2"/>
<rect x="45.1591" y="1.69888" width="21.6023" height="21.6023" stroke="black" stroke-width="2"/>
<rect x="67.2386" y="1.69888" width="21.6023" height="21.6023" stroke="black" stroke-width="2"/>
<rect x="89.3182" y="1.69888" width="21.6023" height="21.6023" stroke="black" stroke-width="2"/>
<rect x="111.398" y="1.69888" width="21.6023" height="21.6023" stroke="black" stroke-width="2"/>
</svg>
