<svg width="1260" height="700" viewBox="0 0 1260 700" fill="none" xmlns="http://www.w3.org/2000/svg">
<path d="M1259.95 0C1210.78 3.77189 1160.74 2.85749 1111.06 4.20051H1106.98C969.368 8.4296 831.254 55.6354 778.412 138.76C735.524 206.168 751.716 302.78 596.033 305.695C498.973 307.523 417.554 266.89 322.649 262.118C241.184 258.003 156.875 292.979 138.756 343.814C125.913 380.047 148.251 414.336 163.664 448.455C178.488 482.326 184.315 517.481 180.911 552.525C178.067 583.043 165.499 613.847 137.38 638.907C102.244 670.339 52.2458 682.826 0 699.171C3.25676 699.486 6.51352 699.714 9.77028 700H602.96C709.561 700 792.173 699.857 859.097 641.65C883.775 620.162 907.536 596.13 944.874 582.243C987.303 566.441 1035.15 571.07 1081.93 566.984C1141.06 561.84 1213.81 535.094 1246.79 504.119C1251.38 499.975 1255.69 495.546 1260 490.803L1259.95 0Z" fill="url(#paint0_linear)"/>
<path d="M662.762 246.323H541.302C541.302 246.323 551.252 278.604 541.302 288.583C532.724 297.161 513.052 279.862 504.332 288.583C495.611 297.304 495.754 316.832 504.332 325.524C512.909 334.216 532.581 316.947 541.302 325.524C551.252 335.503 541.302 367.784 541.302 367.784C541.302 367.784 573.582 377.734 583.561 367.784C592.139 359.206 574.983 339.535 583.561 330.814C592.139 322.093 611.81 322.236 620.503 330.814C629.195 339.392 611.925 359.063 620.503 367.784C630.481 377.734 662.762 367.784 662.762 367.784V246.323Z" fill="url(#paint1_linear)"/>
<g opacity="0.1">
<path opacity="0.1" d="M541.302 246.323C541.302 246.323 542.159 249.183 543.103 253.214H657.244V369.271C660.589 368.441 662.762 367.784 662.762 367.784V246.323H541.302Z" fill="#525D7A"/>
</g>
<path d="M671.054 603.299V481.925C671.054 481.925 638.744 491.875 628.794 481.925C620.074 473.204 637.372 453.675 628.794 444.955C620.217 436.234 600.545 436.234 591.824 444.955C583.104 453.675 600.402 473.204 591.824 481.925C581.874 491.875 549.593 481.925 549.593 481.925C549.593 481.925 539.643 514.206 549.593 524.156C558.314 532.876 577.843 515.578 586.563 524.156C595.284 532.733 595.141 552.405 586.563 561.126C577.986 569.846 558.314 552.405 549.593 561.126C539.643 571.076 549.593 603.357 549.593 603.357L671.054 603.299Z" fill="url(#paint2_linear)"/>
<g opacity="0.2">
<path opacity="0.2" d="M662.762 484.04V595.093H547.478C548.564 599.983 549.594 603.357 549.594 603.357H671.054V481.925C671.054 481.925 667.651 482.954 662.762 484.04Z" fill="#525D7A"/>
</g>
<path d="M689.582 602.956H811.014C811.014 602.956 801.063 570.675 811.014 560.697C819.734 552.119 839.291 569.417 847.984 560.697C856.676 551.976 856.704 532.447 847.984 523.755C839.263 515.063 819.734 532.333 811.014 523.755C801.063 513.777 811.014 481.496 811.014 481.496C811.014 481.496 778.733 471.546 768.783 481.496C760.205 490.074 777.503 509.745 768.783 518.466C760.062 527.186 740.533 527.044 731.813 518.466C723.092 509.888 740.39 490.216 731.813 481.496C721.863 471.546 689.582 481.496 689.582 481.496V602.956Z" fill="url(#paint3_linear)"/>
<g opacity="0.2">
<path opacity="0.2" d="M808.926 594.722H697.988V479.38C693.099 480.467 689.725 481.496 689.725 481.496V602.956H811.157C811.157 602.956 809.984 599.582 808.926 594.722Z" fill="#525D7A"/>
</g>
<path d="M396.024 602.985H274.563C274.563 602.985 284.542 570.704 274.563 560.725C265.986 552.148 246.314 569.303 237.622 560.725C228.93 552.148 228.901 532.476 237.622 523.784C246.343 515.092 265.871 532.362 274.563 523.784C284.542 513.805 274.563 481.524 274.563 481.524C274.563 481.524 306.873 471.574 316.823 481.524C325.401 490.245 308.245 509.774 316.823 518.494C325.401 527.215 345.072 527.072 353.793 518.494C362.513 509.917 345.072 490.245 353.793 481.524C363.743 471.574 396.024 481.524 396.024 481.524V602.985Z" fill="url(#paint4_linear)"/>
<g opacity="0.2">
<path opacity="0.2" d="M276.679 594.722H387.76V479.409C392.65 480.495 396.024 481.524 396.024 481.524V602.985H274.563C274.563 602.985 275.621 599.611 276.679 594.722Z" fill="#525D7A"/>
</g>
<path opacity="0.3" d="M397.453 481.524H397.053C395.881 481.181 393.107 480.381 389.419 479.58C382.323 477.896 375.036 477.156 367.746 477.379V567.788H397.682L397.453 481.524Z" fill="#2B2046"/>
<path d="M377.524 561.898H498.985C498.985 561.898 489.006 529.617 498.985 519.638C507.563 511.06 527.234 528.216 535.926 519.638C544.618 511.06 544.647 491.389 535.926 482.697C527.206 474.005 507.677 491.274 498.985 482.697C489.006 472.718 498.985 440.437 498.985 440.437C498.985 440.437 466.675 430.487 456.725 440.437C448.005 449.158 465.303 468.686 456.725 477.407C448.148 486.128 428.476 486.128 419.755 477.407C411.035 468.686 428.333 449.158 419.755 440.437C409.805 430.487 377.524 440.437 377.524 440.437V561.898Z" fill="url(#paint5_linear)"/>
<g opacity="0.2">
<path opacity="0.2" d="M387.189 552.233V438.035C381.47 439.208 377.524 440.437 377.524 440.437V561.898H498.985C498.985 561.898 497.727 557.866 496.555 552.233H387.189Z" fill="#525D7A"/>
</g>
<path d="M821.95 565.925L807.764 572.375L814.427 587.029L828.612 580.579L821.95 565.925Z" fill="white"/>
<path d="M759.347 485.785L774.044 521.925L808.984 577.881L825.996 570.189L790.942 504.255L764.837 420.565L759.347 485.785Z" fill="#D77EDB"/>
<path d="M809.127 577.395L807.926 577.909L802.379 591.405L799.291 596.123L789.627 598.782L789.655 602.727L801.035 602.956L836.118 588.174L836.861 583.428L832.029 572.477L828.97 571.933L826.568 572.991L823.48 580.969L812.472 585.686L809.127 577.395Z" fill="white"/>
<path d="M836.861 583.399L832.029 572.477L828.97 571.933L826.568 572.991L823.48 580.969L812.472 585.686L809.127 577.395L807.926 577.909L802.379 591.405L799.291 596.123L789.627 598.782V599.782H798.004L836.861 583.399Z" fill="#56408B"/>
<path d="M769.44 576.48H753.857V592.577H769.44V576.48Z" fill="white"/>
<path d="M724.436 390.629L744.622 507.858L753.571 582.198H769.726C769.726 582.198 771.099 512.805 766.381 503.426L769.726 423.167C772.187 415.307 772.697 406.966 771.213 398.864C770.614 395.609 769.13 392.582 766.924 390.115L766.381 389.514L724.436 390.629Z" fill="#F8AA8F"/>
<path opacity="0.2" d="M775.931 524.928C775.016 514.291 773.815 505.571 772.214 502.683L772.443 445.041L764.837 420.565L759.347 485.785L774.072 521.925L775.931 524.928Z" fill="#525D7A"/>
<path d="M724.436 390.629L744.622 507.858L753.571 582.198H769.726C769.726 582.198 771.099 512.805 766.381 503.426L769.726 423.167C772.187 415.307 772.697 406.966 771.213 398.864C770.614 395.609 769.13 392.582 766.924 390.115L766.381 389.514L724.436 390.629Z" fill="#D77EDB"/>
<path d="M751.684 582.17H750.398L739.876 592.263L723.121 598.639V602.956H772.042L774.644 598.925V586.944L772.042 585.2H769.44L763.379 591.262L751.399 591.119L751.684 582.17Z" fill="white"/>
<path d="M769.44 585.2L763.379 591.262L751.398 591.119L751.684 582.17H750.398L739.876 592.263L723.406 598.524H774.644V586.944L772.042 585.2H769.44Z" fill="#56408B"/>
<path d="M769.154 286.667H753.143V302.25H769.154V286.667Z" fill="white"/>
<path opacity="0.15" d="M753.229 292.043C758.481 290.868 763.091 287.74 766.124 283.293L752.028 286.153L753.229 292.043Z" fill="#525D7A"/>
<path d="M748.94 252.757L748.225 261.334C748.225 261.334 744.908 268.111 741.877 269.912C741.877 269.912 742.449 272.2 744.05 272.371V283.579C744.046 284.3 744.185 285.015 744.457 285.682C744.73 286.35 745.131 286.957 745.638 287.47C746.145 287.982 746.748 288.389 747.413 288.669C748.077 288.948 748.79 289.094 749.511 289.098H754.772C759.223 289.084 763.556 287.664 767.15 285.04C770.745 282.415 773.418 278.722 774.787 274.487L778.876 261.82L772.957 249.411L758.089 248.554C756.322 248.312 754.523 248.579 752.902 249.323C751.282 250.068 749.907 251.259 748.94 252.757Z" fill="white"/>
<g opacity="0.15">
<path opacity="0.15" d="M756.574 288.983C760.689 288.616 764.605 287.046 767.834 284.468C771.062 281.89 773.461 278.419 774.73 274.487L778.819 261.82L772.9 249.411L758.032 248.554C756.277 248.32 754.492 248.588 752.883 249.327C751.274 250.066 749.906 251.245 748.94 252.728L748.596 256.931C750.296 258.3 752.16 259.452 754.143 260.362C755.127 260.672 756.084 261.065 757.003 261.535C757.9 262.507 758.564 263.67 758.947 264.937C759.103 265.413 759.284 265.881 759.49 266.338C760.348 268.254 763.236 269.683 763.179 272.057C763.108 272.537 762.937 272.997 762.675 273.406C762.414 273.815 762.069 274.164 761.663 274.43C760.839 274.946 760.113 275.604 759.519 276.374C759.186 277.131 759.015 277.949 759.015 278.776C759.015 279.603 759.186 280.42 759.519 281.178C760.238 282.68 760.34 284.404 759.805 285.981C759.176 287.153 757.632 287.954 756.574 288.983Z" fill="#525D7A"/>
</g>
<path d="M748.311 245.895C744.965 249.897 747.882 255.016 751.17 257.989C753.09 259.684 755.26 261.073 757.603 262.106C758.587 262.417 759.544 262.809 760.462 263.279C761.364 264.248 762.03 265.412 762.407 266.681C762.578 267.139 762.75 267.596 762.95 268.054C763.808 269.998 766.695 271.428 766.638 273.772C766.562 274.247 766.388 274.7 766.127 275.104C765.867 275.508 765.524 275.853 765.123 276.117C764.299 276.633 763.573 277.291 762.978 278.061C762.646 278.818 762.475 279.636 762.475 280.463C762.475 281.29 762.646 282.107 762.978 282.865C763.696 284.377 763.799 286.11 763.264 287.697C762.492 289.04 760.634 289.87 759.604 291.042C758.575 292.214 757.003 293.186 755.916 294.616C754.315 296.646 753.972 299.534 752.399 301.421C750.335 303.216 748.06 304.753 745.623 305.996C744.313 306.751 743.216 307.827 742.436 309.122C741.655 310.417 741.217 311.89 741.162 313.401C745.737 311.829 751.37 314.173 755.258 311.285C755.945 310.771 756.545 310.084 757.231 309.541C759.034 308.393 760.95 307.435 762.95 306.682C764.843 305.705 766.494 304.318 767.782 302.622C769.648 303.121 771.601 303.199 773.5 302.851C776.082 302.94 778.636 302.301 780.871 301.007C783.106 299.712 784.932 297.815 786.138 295.531L788.225 292.672C788.854 291.785 789.512 290.899 790.084 289.984C793.564 284.983 795.08 278.876 794.344 272.829C793.145 267.64 790.855 262.766 787.625 258.532C785.338 255.044 783.041 251.556 780.734 248.068C779.982 246.72 779.016 245.504 777.875 244.465C776.774 243.655 775.533 243.054 774.215 242.692C769.649 241.491 764.904 241.113 760.205 241.577C755.973 241.949 751.141 242.606 748.311 245.895Z" fill="#623FE9"/>
<path d="M732.299 320.807L709.654 317.633C705.567 316.978 701.777 315.093 698.788 312.229L660.818 276.088L656.329 273.229L643.348 268.025L636.228 262.507C634.17 260.62 635.399 259.104 637.372 259.304L642.919 263.851L645.521 264.937L647.036 264.079L637.944 255.13C637.944 254.444 639.431 253.386 640.117 253.414L648.123 260.991L649.924 259.333L640.889 249.469C639.688 247.782 642.862 247.21 645.778 249.897L651.497 257.961L653.241 257.303L647.751 245.866C648.237 245.094 650.01 246.495 650.81 246.952C653.813 248.668 658.216 257.617 658.216 257.617L661.247 258.504L662.962 255.645L662.333 251.956L667.222 256.96L666.593 264.765L701.934 297.647L733.614 304.995L732.299 320.807Z" fill="white"/>
<g opacity="0.15">
<path opacity="0.15" d="M711.426 314.173C707.335 313.514 703.544 311.618 700.561 308.741L662.476 272.628L657.987 269.769L645.635 264.823H645.435L642.833 263.736L637.286 259.19C635.313 258.99 634.084 260.505 636.143 262.392L643.262 267.911L656.243 273.115L660.732 275.974L698.846 312.229C701.834 315.093 705.624 316.978 709.711 317.633L732.299 320.807L732.642 317.147L711.426 314.173Z" fill="#525D7A"/>
</g>
<g opacity="0.15">
<path opacity="0.15" d="M747.624 247.153C749.581 244.593 752.41 242.843 755.573 242.235C752.808 242.6 750.249 243.89 748.311 245.895C747.771 246.571 747.372 247.349 747.138 248.182C747.266 247.824 747.428 247.479 747.624 247.153Z" fill="#525D7A"/>
<path opacity="0.15" d="M752.485 307.054C754.752 305.516 756.817 303.701 758.632 301.65C759.976 299.591 759.948 296.703 761.291 294.473C762.178 292.929 763.55 291.928 764.522 290.47C765.495 289.012 767.124 288.154 767.725 286.696C768.063 285.059 767.745 283.354 766.838 281.95C766.409 281.246 766.129 280.461 766.016 279.645C765.902 278.828 765.959 277.997 766.181 277.203C766.673 276.362 767.312 275.616 768.068 275.002C768.444 274.693 768.747 274.304 768.954 273.864C769.162 273.424 769.269 272.943 769.269 272.457C769.069 270.198 766.009 269.14 764.923 267.31C764.665 266.881 764.437 266.452 764.208 265.995C763.669 264.794 762.868 263.729 761.863 262.878C760.889 262.521 759.884 262.253 758.861 262.078C756.852 261.419 754.932 260.516 753.143 259.39C754.579 260.492 756.121 261.45 757.746 262.249C758.73 262.56 759.687 262.952 760.605 263.422C761.507 264.391 762.173 265.555 762.55 266.824C762.721 267.282 762.893 267.739 763.093 268.197C763.951 270.141 766.838 271.571 766.781 273.915C766.705 274.39 766.531 274.843 766.27 275.247C766.01 275.651 765.667 275.996 765.266 276.26C764.442 276.776 763.716 277.434 763.121 278.204C762.789 278.961 762.617 279.779 762.617 280.606C762.617 281.433 762.789 282.25 763.121 283.007C763.839 284.52 763.942 286.253 763.407 287.84C762.635 289.183 760.777 290.013 759.747 291.185C758.718 292.357 757.146 293.329 756.059 294.759C754.458 296.789 754.115 299.677 752.542 301.564C750.478 303.359 748.203 304.896 745.766 306.139C744.456 306.894 743.359 307.97 742.579 309.265C741.798 310.56 741.36 312.033 741.305 313.544C743.821 312.936 746.419 312.743 748.997 312.972C749.473 310.668 750.7 308.586 752.485 307.054Z" fill="#525D7A"/>
</g>
<path opacity="0.2" d="M766.924 389.972L766.381 389.371L724.436 390.629L726.294 401.466C742.135 397.577 759.604 419.508 772.042 410.787C772.281 406.75 772.032 402.698 771.299 398.721C770.676 395.457 769.161 392.429 766.924 389.972Z" fill="#525D7A"/>
<path d="M770.041 295.016C770.041 295.016 783.279 299.934 783.937 311.857L768.011 365.525L772.5 396.148C758.547 408.528 737.846 387.741 720.09 400.951L737.245 332.844C735.736 330.686 734.736 328.214 734.32 325.614C733.904 323.014 734.083 320.354 734.844 317.833L735.33 316.175L752.771 302.107L770.041 295.016Z" fill="#56408B"/>
<g opacity="0.2">
<path opacity="0.2" d="M739.189 330.328L736.016 330.871C736.362 331.554 736.754 332.213 737.188 332.844L720.033 400.951C721.313 400.01 722.683 399.196 724.121 398.521L740.59 332.758C740.072 331.979 739.605 331.167 739.189 330.328Z" fill="#525D7A"/>
<path opacity="0.2" d="M736.273 396.405C745.423 396.891 754.572 400.779 762.607 400.208C754.401 399.664 745.251 395.919 736.273 396.405Z" fill="#525D7A"/>
</g>
<path opacity="0.2" d="M766.381 305.71L747.224 306.539L735.158 316.175L734.672 317.833C733.376 322.174 733.816 326.849 735.901 330.871L762.264 326.125L766.381 305.71Z" fill="#525D7A"/>
<path d="M766.381 302.25L733.957 303.623L732.356 323.065L768.011 325.696L766.381 302.25Z" fill="#56408B"/>
<path d="M794.945 278.833C795.183 276.389 794.578 273.937 793.229 271.885C792.445 271.092 791.549 270.418 790.57 269.884C789.743 269.379 788.883 268.931 787.997 268.54C783.937 266.996 779.419 268.797 775.645 270.999C773.35 272.328 771.268 273.996 769.469 275.945C768.587 276.901 767.819 277.956 767.181 279.09C766.832 279.6 766.616 280.188 766.551 280.802C766.486 281.416 766.575 282.036 766.81 282.607C767.628 286.821 768.756 290.968 770.184 295.016C770.915 297.045 772.171 298.845 773.823 300.231C775.475 301.617 777.465 302.541 779.591 302.908C777.446 310.342 779.819 317.204 781.02 323.923C782.317 322.239 783.456 320.44 784.423 318.548C786.081 315.689 787.739 312.829 789.341 309.97C791.41 306.453 793.097 302.724 794.373 298.848C796.174 292.386 795.002 285.495 794.945 278.833Z" fill="#623FE9"/>
<path d="M794.945 278.833C794.943 277.877 794.886 276.923 794.773 275.974C794.761 275.017 794.685 274.061 794.544 273.114C793.346 267.926 791.055 263.052 787.825 258.818C785.538 255.33 783.241 251.842 780.934 248.354C780.182 247.006 779.216 245.79 778.075 244.751C776.974 243.941 775.734 243.34 774.415 242.978C769.849 241.776 765.104 241.399 760.405 241.863C756.059 242.092 751.227 242.749 748.396 246.066C747.722 246.895 747.26 247.877 747.052 248.925C750.215 246.543 754.073 245.267 758.032 245.294C762.729 244.779 767.48 245.088 772.071 246.209C773.395 246.565 774.644 247.155 775.759 247.953C776.948 249.006 777.961 250.241 778.761 251.613L785.767 261.992C789.059 266.214 791.418 271.087 792.686 276.288C792.838 277.234 792.924 278.19 792.943 279.147C793.064 280.096 793.13 281.051 793.143 282.007C793.315 288.669 794.573 295.56 792.686 302.021C792.266 303.471 791.76 304.893 791.17 306.282C792.407 303.918 793.43 301.449 794.23 298.905C796.174 292.386 795.002 285.495 794.945 278.833Z" fill="#8165ED"/>
<path d="M254.347 577.063L243.001 569.703L235.299 581.577L246.645 588.937L254.347 577.063Z" fill="white"/>
<path d="M280.796 443.868L272.162 511.804L236.65 576.766L252.633 582.398L297.351 528.73L315.622 469.744L280.796 443.868Z" fill="#56408B"/>
<path d="M272.991 602.985H255.464L226.642 591.862L224.584 587.488L234.791 573.363L236.335 574.707V581.312L250.631 586.144L255.749 581.312L260.353 590.547L264.67 594.35L278.509 597.009C279.982 598.665 280.849 600.772 280.968 602.985H272.991Z" fill="#56408B"/>
<path d="M272.991 602.985H280.911C280.868 601.489 280.434 600.03 279.653 598.753H259.066L229.387 587.488L227.586 583.285L224.727 587.431L226.785 591.805L255.607 602.928L272.991 602.985Z" fill="white"/>
<path d="M259.181 588.317L254.577 586.887L254.206 588.031L259.924 589.804L259.181 588.317Z" fill="white"/>
<path d="M261.497 591.605L256.865 590.147L256.493 591.319L263.67 593.521L261.497 591.605Z" fill="white"/>
<path d="M257.608 585.143L253.09 583.742L252.09 584.686L258.351 586.659L257.608 585.143Z" fill="white"/>
<path d="M378.296 349.719L366.008 329.016L336.773 346.368L349.061 367.071L378.296 349.719Z" fill="white"/>
<path d="M349.275 576.766H334.436V590.919H349.275V576.766Z" fill="white"/>
<path opacity="0.3" d="M296.093 487.729L306.501 499.166L315.622 469.773L280.796 444.04L278.966 458.336C282.516 469.242 288.355 479.263 296.093 487.729Z" fill="#161023"/>
<path d="M274.964 446.67C280.585 459.964 289.681 471.5 301.297 480.066L339.068 507.915L332.634 580.568H352.192C353.192 566.272 362.085 538.623 366.259 522.04C367.272 517.344 367.733 512.546 367.631 507.744C367.934 502.803 366.781 497.882 364.315 493.59L358.082 482.925L341.412 465.17L325.801 447.642L325.515 435.748H274.964V446.67Z" fill="#56408B"/>
<path opacity="0.3" d="M364.315 493.476L358.082 482.811L341.412 465.055L325.801 447.528H318.881L334.521 465.055L351.191 482.811L357.395 493.476C359.87 497.765 361.033 502.686 360.741 507.629C360.842 512.432 360.381 517.23 359.368 521.925C355.194 538.509 346.302 566.244 345.301 580.454H352.192C353.192 566.158 362.085 538.509 366.259 521.925C367.272 517.23 367.733 512.432 367.631 507.629C367.934 502.689 366.781 497.768 364.315 493.476Z" fill="#161023"/>
<path d="M356.337 579.739L373.893 591.862L382.757 594.55C383.7 594.838 384.526 595.421 385.113 596.214C385.7 597.007 386.016 597.967 386.016 598.953V601.669H331.462L328.946 597.695V581.598L331.462 582.027L335.436 587.459H342.956L356.337 579.739Z" fill="#56408B"/>
<path d="M385.359 596.695C385.778 597.385 386.006 598.174 386.016 598.982V601.698H331.462L328.946 597.724V592.72L331.462 596.695H385.359Z" fill="white"/>
<path d="M357.996 586.802V585.543H364.715L366.545 586.802H357.996Z" fill="white"/>
<path d="M354.822 582.884H360.855L362.685 584.142H354.822V582.884Z" fill="white"/>
<path d="M361.313 589.346V588.088H368.403L370.233 589.346H361.313Z" fill="white"/>
<path d="M401.228 334.245L397.167 346.883L394.108 346.454C394.108 346.454 396.767 352.859 393.222 356.976L388.275 355.232L385.159 360.093C384.595 360.974 383.856 361.732 382.989 362.317C382.121 362.903 381.143 363.304 380.114 363.497C379.085 363.69 378.028 363.67 377.007 363.439C375.987 363.207 375.024 362.769 374.179 362.151L369.404 358.691C365.421 355.774 362.642 351.502 361.588 346.678C360.535 341.855 361.281 336.813 363.686 332.501L373.522 314.516C373.522 314.516 398.54 318.919 401.228 334.245Z" fill="white"/>
<g opacity="0.15">
<path opacity="0.15" d="M400.627 332.015C400.456 331.586 400.313 331.186 400.141 330.785C399.969 330.385 399.884 330.271 399.741 330.013C398.502 327.731 396.866 325.688 394.909 323.98L394.28 323.466L393.365 322.722C387.784 318.914 381.507 316.243 374.894 314.859L365.344 329.499L363.457 332.501C362.342 334.56 361.198 336.761 361.627 336.018C362.628 334.302 365.716 333.158 367.346 332.186C368.381 331.29 369.658 330.72 371.016 330.547C372.374 330.374 373.753 330.606 374.98 331.214C376.022 332.076 376.767 333.243 377.111 334.551C377.455 335.859 377.379 337.242 376.895 338.505C376.249 340.424 375.044 342.107 373.436 343.337C371.952 344.553 370.161 345.335 368.261 345.596C367.581 345.58 366.903 345.523 366.23 345.425C365.377 345.39 364.524 345.526 363.724 345.826C362.923 346.125 362.191 346.582 361.57 347.169C362.713 351.78 365.46 355.834 369.318 358.606L374.093 362.065C374.884 362.632 375.778 363.04 376.724 363.266C378.038 363.402 379.365 363.197 380.577 362.672C381.789 362.146 382.845 361.317 383.643 360.264L384.987 358.434C384.657 358.244 384.282 358.145 383.901 358.148C382.528 358.148 381.899 359.807 380.355 359.721C379.823 359.679 379.306 359.523 378.84 359.263C376.961 357.884 375.433 356.081 374.379 354.002C372.521 351.143 375.065 348.97 376.095 347.226C377.143 345.744 378.33 344.365 379.64 343.109C380.269 342.337 380.87 340.678 381.527 339.935C382.169 339.332 383.02 339.004 383.901 339.02C385.218 339.106 386.533 338.829 387.703 338.219C388.415 337.791 389.06 337.261 389.619 336.647C390.183 335.85 390.868 335.145 391.649 334.56C391.992 334.317 392.402 334.188 392.821 334.188C393.736 334.188 393.822 335.474 394.337 336.075C395.036 336.882 395.88 337.551 396.824 338.048C397.608 338.449 398.421 338.793 399.255 339.077H399.626L401.228 334.102C401.069 333.395 400.869 332.698 400.627 332.015Z" fill="#525D7A"/>
</g>
<path d="M376.953 334.674C377.348 333.378 377.326 331.991 376.89 330.708C376.454 329.425 375.626 328.312 374.522 327.526C373.248 327.019 371.854 326.892 370.509 327.161C369.164 327.43 367.926 328.083 366.945 329.041C365.35 330.345 364.037 331.96 363.085 333.788C362.802 334.618 362.344 335.379 361.741 336.018C361.227 336.447 360.598 336.218 359.94 336.246C359.234 336.36 358.512 336.305 357.831 336.086C357.15 335.867 356.531 335.491 356.023 334.988C355.841 334.781 355.705 334.537 355.623 334.274C355.28 333.187 356.023 332.444 356.738 331.815C357.674 330.994 358.316 329.889 358.568 328.67C358.768 327.144 358.854 325.605 358.825 324.066C358.787 322.523 359.271 321.012 360.197 319.777C360.884 319.005 361.913 318.662 362.485 317.833C363.022 316.944 363.427 315.98 363.686 314.974C364.039 313.086 364.91 311.334 366.202 309.913C367.139 309.197 368.207 308.672 369.347 308.369C370.291 308.173 371.246 308.03 372.206 307.94C373.309 307.618 374.359 307.136 375.323 306.51C376.395 305.759 377.629 305.269 378.925 305.081C380.184 305.081 380.841 305.653 381.785 305.967C382.985 306.04 384.188 306.04 385.387 305.967C386.735 306.203 388.063 306.537 389.362 306.968C390.397 307.273 391.366 307.768 392.221 308.426C392.936 309.142 393.577 309.928 394.137 310.771C395.423 312.458 396.996 312.429 398.168 314.145C399.34 315.86 400.37 317.661 401.571 319.291C402.793 320.548 403.894 321.917 404.859 323.38C405.745 325.153 405.717 327.411 407.118 328.784C407.625 329.148 408.069 329.592 408.433 330.099C408.564 330.434 408.606 330.796 408.556 331.152C408.506 331.507 408.365 331.844 408.147 332.129C406.145 334.988 401.656 334.159 398.854 333.387C398.004 333.18 397.172 332.903 396.367 332.558C395.393 332.126 394.502 331.526 393.736 330.785C393.193 330.214 393.022 328.984 392.107 328.984C391.692 329.033 391.297 329.191 390.963 329.442C390.23 330.09 389.594 330.841 389.076 331.672C388.554 332.321 387.949 332.898 387.274 333.387C386.159 334.08 384.871 334.447 383.557 334.445C382.679 334.512 381.855 334.898 381.241 335.532C380.641 336.332 380.155 338.019 379.583 338.848C378.384 340.212 377.303 341.676 376.352 343.223C375.466 345.053 373.064 347.369 375.123 350.114C376.329 352.114 377.983 353.808 379.955 355.06C380.441 355.273 380.968 355.381 381.499 355.375C383.043 355.375 383.557 353.774 384.93 353.573C386.302 353.373 386.96 354.288 387.789 354.86C388.488 355.374 389.105 355.991 389.619 356.69C389.765 356.963 389.843 357.267 389.848 357.576C389.848 359.321 388.504 360.893 387.475 362.18C386.885 362.994 386.16 363.7 385.33 364.267C384.438 364.8 383.476 365.204 382.471 365.468L379.354 366.411C377.748 366.891 376.047 366.96 374.408 366.612C373.683 366.38 373.006 366.022 372.406 365.554C369.175 363.674 366.212 361.366 363.6 358.692C361.261 355.646 360.186 351.816 360.598 347.998C360.812 346.454 361.562 345.035 362.717 343.99C363.873 342.944 365.359 342.339 366.917 342.279C367.593 342.323 368.271 342.323 368.947 342.279C370.859 341.835 372.617 340.888 374.04 339.536C375.463 338.183 376.498 336.475 377.038 334.588L376.953 334.674Z" fill="#56408B"/>
<g opacity="0.2">
<path opacity="0.2" d="M385.502 362.952C384.472 363.295 383.415 363.609 382.385 363.895C380.782 364.385 379.081 364.463 377.439 364.124C376.717 363.887 376.04 363.529 375.437 363.066C372.2 361.194 369.237 358.885 366.631 356.204C364.113 353.137 362.902 349.205 363.257 345.253C363.354 344.512 363.587 343.795 363.943 343.137C363.024 343.613 362.232 344.303 361.635 345.149C361.038 345.995 360.653 346.972 360.512 347.998C360.321 349.954 360.519 351.928 361.093 353.807C361.667 355.686 362.606 357.434 363.857 358.949C366.47 361.623 369.432 363.932 372.664 365.811C373.263 366.279 373.941 366.637 374.665 366.869C376.305 367.218 378.006 367.149 379.612 366.669L382.728 365.725C383.733 365.461 384.696 365.057 385.588 364.524C386.417 363.957 387.142 363.251 387.732 362.437L388.218 361.837C387.367 362.329 386.453 362.704 385.502 362.952Z" fill="#2B2046"/>
</g>
<path d="M359.94 334.188C360.155 332.663 360.241 331.123 360.197 329.584C360.156 328.036 360.651 326.521 361.598 325.296C362.285 324.524 363.285 324.181 363.886 323.351C364.414 322.461 364.809 321.497 365.058 320.492C365.417 318.606 366.287 316.856 367.574 315.431C368.511 314.715 369.58 314.19 370.719 313.887C371.664 313.692 372.618 313.548 373.579 313.458C374.684 313.141 375.734 312.659 376.695 312.029C377.771 311.284 379.004 310.795 380.298 310.599C381.556 310.599 382.214 311.171 383.157 311.486C384.357 311.558 385.56 311.558 386.76 311.486C388.11 311.708 389.44 312.042 390.734 312.486C391.77 312.788 392.741 313.283 393.593 313.944C394.316 314.653 394.959 315.439 395.509 316.289C396.796 317.976 398.368 317.947 399.541 319.663C400.713 321.378 401.771 323.18 402.972 324.81C404.177 326.074 405.267 327.442 406.231 328.898C406.832 330.099 407.032 331.529 407.546 332.758C407.761 332.562 407.961 332.352 408.147 332.129C408.365 331.844 408.506 331.507 408.556 331.152C408.606 330.796 408.564 330.434 408.433 330.099C408.069 329.592 407.625 329.148 407.118 328.784C405.717 327.411 405.745 325.153 404.859 323.38C403.894 321.917 402.793 320.548 401.571 319.291C400.37 317.661 399.34 315.774 398.168 314.145C396.996 312.515 395.309 312.458 394.137 310.771C393.577 309.928 392.936 309.142 392.221 308.426C391.366 307.768 390.397 307.274 389.362 306.968C388.063 306.537 386.735 306.203 385.387 305.967C384.188 306.04 382.985 306.04 381.785 305.967C380.698 305.653 380.041 304.966 378.925 305.081C377.629 305.269 376.395 305.759 375.323 306.51C374.359 307.136 373.309 307.618 372.206 307.94C371.246 308.03 370.291 308.173 369.347 308.369C368.207 308.672 367.139 309.197 366.202 309.913C364.91 311.334 364.039 313.086 363.686 314.974C363.427 315.98 363.022 316.944 362.485 317.833C361.913 318.662 360.884 319.005 360.197 319.777C359.271 321.012 358.787 322.523 358.825 324.066C358.854 325.605 358.768 327.144 358.568 328.67C358.316 329.889 357.674 330.994 356.738 331.815C356.023 332.444 355.28 333.187 355.623 334.274C355.705 334.537 355.841 334.781 356.023 334.988C356.388 335.383 356.83 335.698 357.322 335.915C357.814 336.131 358.345 336.244 358.882 336.247C359.386 335.649 359.747 334.945 359.94 334.188Z" fill="#7866A2"/>
<path opacity="0.3" d="M325.801 447.528L325.515 435.634H274.964V446.67C276.118 449.392 277.426 452.045 278.881 454.619C292.462 456.592 311.019 447.099 325.801 447.528Z" fill="#2B2046"/>
<path d="M350.104 338.477L328.031 341.336C324.09 341.824 320.283 343.077 316.823 345.024C311.105 348.195 306.533 353.087 303.756 359.006L265.986 439.065C279.31 460.881 313.106 434.29 333.578 441.924L354.222 391.716C358.259 381.821 360.337 371.237 360.34 360.55L350.104 338.477Z" fill="#623FE9"/>
<g opacity="0.2">
<path opacity="0.2" d="M280.339 447.871C292.605 448.929 308.531 441.667 322.055 440.723C309.36 439.608 293.463 446.813 280.339 447.871Z" fill="#312075"/>
<path opacity="0.2" d="M350.104 338.477L354.879 360.436C354.872 371.165 352.775 381.789 348.703 391.716L328.689 440.952C330.408 441.136 332.098 441.529 333.721 442.124L354.222 391.716C358.259 381.821 360.337 371.237 360.34 360.55L350.104 338.477Z" fill="#312075"/>
</g>
<path d="M343.814 364.439L350.104 399.607H324.371L308.045 365.382L343.814 364.439Z" fill="#623FE9"/>
<path opacity="0.2" d="M312.162 373.388L324.371 399.607H332.634L326.287 386.426C323.399 380.386 318.271 375.709 311.991 373.388H312.162Z" fill="#312075"/>
<path d="M326.659 399.607L330.89 418.993L336.923 426.341C337.539 427.076 338.208 427.764 338.925 428.4L352.02 438.922L376.352 460.995L383.472 473.89L385.588 491.36C386.022 491.611 386.515 491.743 387.017 491.743C387.519 491.743 388.012 491.611 388.447 491.36L389.39 479.637H391.906L397.625 495.506C398.14 495.849 399.769 495.992 400.17 495.506L396.481 477.779L404.458 495.506C405.059 495.878 406.86 496.049 407.318 495.506L401.342 475.72L402.028 474.119L412.779 487.214C413.608 487.214 415.038 485.727 415.123 484.927L402.028 462.854L402.486 459.394L408.204 458.765C409.458 458.618 410.613 458.015 411.451 457.071C412.29 456.128 412.752 454.909 412.75 453.647L400.856 452.961L389.133 451.817L350.247 409.5L348.417 399.607H326.659Z" fill="white"/>
<g opacity="0.15">
<path opacity="0.15" d="M387.56 471.117L380.612 458.25L356.252 436.148L343.214 425.626C342.49 424.997 341.821 424.309 341.212 423.568L335.179 416.219L331.548 399.607H326.659L330.89 418.993L336.923 426.341C337.539 427.076 338.208 427.764 338.925 428.4L352.02 438.922L376.352 460.995L383.472 473.89L385.588 491.36C386.022 491.611 386.515 491.743 387.017 491.743C387.519 491.743 388.012 491.611 388.447 491.36L389.133 482.782L387.56 471.117Z" fill="#525D7A"/>
</g>
<path d="M157.763 546.115L157.134 546.401C150.615 549.546 147.156 549.003 140.779 546.086C134.854 543.492 129.336 540.054 124.396 535.879C118.04 530.575 113.815 523.151 112.502 514.978C112.11 513.16 112.416 511.262 113.359 509.659C114.209 508.723 115.334 508.079 116.572 507.823C117.81 507.566 119.098 507.708 120.25 508.23C122.535 509.32 124.6 510.822 126.34 512.662C127.094 513.43 128.014 514.017 129.028 514.377C129.542 514.554 130.1 514.557 130.617 514.387C131.133 514.217 131.579 513.882 131.887 513.434C132.745 511.947 131.287 510.231 129.972 509.145C126.912 506.6 124.053 505.113 120.851 502.854C116.712 500.175 113.303 496.511 110.929 492.189C109.735 490.008 109.076 487.575 109.006 485.09C108.937 482.604 109.458 480.138 110.529 477.893C111.172 476.554 112.159 475.41 113.388 474.576C115.752 473.326 118.508 473.039 121.079 473.776C123.681 474.319 126.169 475.32 128.828 475.606C135.061 476.235 137.406 471.86 137.406 466.113C137.406 462.282 136.09 458.536 135.862 454.676C135.573 451.288 136.277 447.889 137.886 444.894C139.495 441.899 141.941 439.436 144.925 437.807C151.044 434.947 159.593 437.807 161.795 444.097C164.168 451.074 158.736 458.879 162.338 465.541C163.817 468.084 165.826 470.278 168.228 471.975C171.659 474.09 176.577 471.603 180.552 471.774C181.441 471.736 182.314 472.02 183.01 472.575C183.438 473.076 183.707 473.693 183.782 474.348C184.231 476.782 184.057 479.29 183.277 481.64C182.498 483.989 181.137 486.103 179.322 487.786C175.205 491.532 168.057 493.505 166.312 499.223C165.226 502.883 165.683 511.975 171.488 511.032C173.661 510.689 175.119 508.544 177.206 507.829C178.537 507.511 179.938 507.668 181.165 508.274C182.392 508.88 183.369 509.896 183.925 511.146C184.424 512.417 184.663 513.776 184.629 515.141C184.594 516.506 184.287 517.85 183.725 519.095C181.859 522.989 179.268 526.492 176.091 529.417C169.915 536.022 165.884 542.112 157.763 546.115Z" fill="url(#paint6_linear)"/>
<path d="M150.587 461.367H147.727V602.985H150.587V461.367Z" fill="#56408B"/>
<path d="M149.128 504.37L131.716 486.9L133.717 484.898L149.128 500.31L164.568 484.898L166.57 486.9L149.128 504.37Z" fill="#56408B"/>
<path d="M149.128 537.365L131.716 519.924L133.717 517.894L149.128 533.305L164.568 517.894L166.57 519.924L149.128 537.365Z" fill="#56408B"/>
<path d="M224.041 503.769L223.183 504.198C214.062 508.573 209.201 507.829 200.309 503.741C192.036 500.1 184.332 495.285 177.435 489.444C168.545 482.07 162.615 471.734 160.737 460.337C160.204 457.793 160.642 455.141 161.966 452.903C163.156 451.596 164.729 450.698 166.459 450.339C168.19 449.979 169.99 450.176 171.602 450.902C174.813 452.446 177.719 454.558 180.18 457.135C181.225 458.215 182.508 459.038 183.925 459.537C184.645 459.765 185.418 459.758 186.133 459.516C186.847 459.274 187.466 458.811 187.9 458.193C189.072 456.106 187.042 453.704 185.212 452.189C180.923 448.615 176.92 446.47 172.46 443.411C166.661 439.666 161.886 434.536 158.564 428.485C156.926 425.457 156.021 422.087 155.922 418.646C155.823 415.205 156.532 411.788 157.992 408.671C158.92 406.784 160.331 405.176 162.081 404.01C165.393 402.253 169.259 401.853 172.86 402.895C176.413 403.942 180.021 404.792 183.668 405.44C192.246 406.355 195.791 400.208 195.62 392.202C195.62 386.826 193.761 381.594 193.475 376.219C192.932 366.755 197.593 356.69 206.142 352.658C214.691 348.627 226.671 352.487 229.73 361.436C233.047 371.186 225.47 382.109 230.502 391.43C232.556 394.94 235.346 397.964 238.68 400.293C243.455 403.153 250.346 399.779 255.835 400.036C257.087 399.961 258.322 400.359 259.295 401.151C259.88 401.861 260.247 402.725 260.353 403.639C260.974 407.039 260.731 410.541 259.647 413.823C258.563 417.105 256.672 420.063 254.148 422.424C248.43 427.656 238.394 430.344 235.935 438.55C234.42 443.639 235.077 456.363 243.197 455.048C246.228 454.59 248.258 451.56 251.175 450.587C253.029 450.138 254.982 450.356 256.692 451.203C258.402 452.05 259.758 453.472 260.524 455.219C261.233 456.99 261.575 458.886 261.531 460.793C261.487 462.699 261.057 464.577 260.267 466.313C257.649 471.718 254.019 476.571 249.574 480.609C241.053 489.673 235.392 498.165 224.041 503.769Z" fill="url(#paint7_linear)"/>
<path d="M213.404 385.254H210.545V602.985H213.404V385.254Z" fill="#56408B"/>
<path d="M211.975 444.583L188.014 420.594L190.016 418.564L211.975 440.552L233.962 418.564L235.964 420.594L211.975 444.583Z" fill="#56408B"/>
<path d="M211.975 490.731L188.014 466.742L190.016 464.712L211.975 486.671L233.962 464.712L235.964 466.742L211.975 490.731Z" fill="#56408B"/>
<defs>
<linearGradient id="paint0_linear" x1="-119.262" y1="349.986" x2="1269.5" y2="349.986" gradientUnits="userSpaceOnUse">
<stop stop-color="#003388"/>
<stop offset="0.05" stop-color="#0A45A6"/>
<stop offset="0.28" stop-color="#607DED"/>
<stop offset="0.5" stop-color="#5FA5F0"/>
<stop offset="0.7" stop-color="#5EC2F2"/>
<stop offset="0.87" stop-color="#5DD4F4"/>
<stop offset="1" stop-color="#5DDAF4"/>
</linearGradient>
<linearGradient id="paint1_linear" x1="663.849" y1="250.098" x2="536.612" y2="367.326" gradientUnits="userSpaceOnUse">
<stop stop-color="#623FE9"/>
<stop offset="0.02" stop-color="#6440E9"/>
<stop offset="0.41" stop-color="#805AE6"/>
<stop offset="0.75" stop-color="#9169E5"/>
<stop offset="1" stop-color="#976FE4"/>
</linearGradient>
<linearGradient id="paint2_linear" x1="571.867" y1="611.706" x2="656.214" y2="460.166" gradientUnits="userSpaceOnUse">
<stop stop-color="#623FE9"/>
<stop offset="0.25" stop-color="#6844E8"/>
<stop offset="0.59" stop-color="#7954E7"/>
<stop offset="0.97" stop-color="#946DE4"/>
<stop offset="1" stop-color="#976FE4"/>
</linearGradient>
<linearGradient id="paint3_linear" x1="-28604.3" y1="36926.7" x2="-21201.5" y2="40071.6" gradientUnits="userSpaceOnUse">
<stop stop-color="#623FE9"/>
<stop offset="0.25" stop-color="#6844E8"/>
<stop offset="0.59" stop-color="#7954E7"/>
<stop offset="0.97" stop-color="#946DE4"/>
<stop offset="1" stop-color="#976FE4"/>
</linearGradient>
<linearGradient id="paint4_linear" x1="404.344" y1="503.826" x2="252.804" y2="588.174" gradientUnits="userSpaceOnUse">
<stop stop-color="#976FE4"/>
<stop offset="0.03" stop-color="#946DE4"/>
<stop offset="0.41" stop-color="#7954E7"/>
<stop offset="0.75" stop-color="#6844E8"/>
<stop offset="1" stop-color="#623FE9"/>
</linearGradient>
<linearGradient id="paint5_linear" x1="15867.9" y1="22403.8" x2="25382.8" y2="22403.8" gradientUnits="userSpaceOnUse">
<stop stop-color="#623FE9"/>
<stop offset="0.25" stop-color="#6844E8"/>
<stop offset="0.59" stop-color="#7954E7"/>
<stop offset="0.97" stop-color="#946DE4"/>
<stop offset="1" stop-color="#976FE4"/>
</linearGradient>
<linearGradient id="paint6_linear" x1="144.725" y1="554.006" x2="149.014" y2="442.41" gradientUnits="userSpaceOnUse">
<stop stop-color="#623FE9"/>
<stop offset="0.03" stop-color="#6244E9"/>
<stop offset="0.37" stop-color="#6084EE"/>
<stop offset="0.65" stop-color="#5EB3F1"/>
<stop offset="0.87" stop-color="#5DCFF3"/>
<stop offset="1" stop-color="#5DDAF4"/>
</linearGradient>
<linearGradient id="paint7_linear" x1="206.771" y1="524.642" x2="210.345" y2="368.813" gradientUnits="userSpaceOnUse">
<stop stop-color="#56408B"/>
<stop offset="0.15" stop-color="#694997"/>
<stop offset="1" stop-color="#D77EDB"/>
</linearGradient>
</defs>
</svg>
