<svg width="20" height="14" viewBox="0 0 20 14" fill="none" xmlns="http://www.w3.org/2000/svg">
<path d="M19.6372 5.82531L16.214 1.15584C15.763 0.540894 14.8488 0.0776367 14.0904 0.0776367H1.60704C0.721518 0.0776367 -1.52588e-05 0.79917 -1.52588e-05 1.68469V12.315C-1.52588e-05 13.2005 0.721518 13.9221 1.60704 13.9221H14.0904C14.8529 13.9221 15.7671 13.4588 16.214 12.8439L19.6372 8.17439C20.1209 7.51845 20.1209 6.48534 19.6372 5.82531ZM18.7435 7.52665L15.3203 12.1961C15.0825 12.5241 14.4921 12.8193 14.0863 12.8193H1.60704C1.33236 12.8193 1.10688 12.5938 1.10688 12.3191V1.68469C1.10688 1.41001 1.33236 1.18453 1.60704 1.18453H14.0904C14.4962 1.18453 15.0825 1.48381 15.3244 1.80768L18.7476 6.47715C18.9443 6.75182 18.9443 7.25197 18.7435 7.52665Z" fill="white"/>
</svg>
